<?xml version="1.0" encoding="utf-8"?>
<!-- Generator: Adobe Illustrator 16.0.0, SVG Export Plug-In . SVG Version: 6.00 Build 0)  -->
<!DOCTYPE svg PUBLIC "-//W3C//DTD SVG 1.1//EN" "http://www.w3.org/Graphics/SVG/1.1/DTD/svg11.dtd">
<svg version="1.1" id="圖層_1" xmlns="http://www.w3.org/2000/svg" xmlns:xlink="http://www.w3.org/1999/xlink" x="0px" y="0px"
	 width="763.734px" height="242.126px" viewBox="0 0 763.734 242.126" enable-background="new 0 0 763.734 242.126"
	 xml:space="preserve">
<g>
	<path fill-rule="evenodd" clip-rule="evenodd" fill="#FFFFFF" d="M112.761,208.443c-6.323,5.764-11.872,11.275-17.89,16.214
		c-12.66,10.387-26.816,17.396-43.65,17.313c-34.065-0.165-59.079-32.968-48.943-65.494c4.526-14.527,11.362-28.423,18.039-42.174
		C38.054,97.773,56.157,61.42,74.371,25.124c6.332-12.618,16.008-21.68,30.444-24.371c17.424-3.248,33.454,4.098,43.105,20.39
		c6.101,10.298,11.623,20.975,16.832,31.758c18.317,37.915,36.74,75.786,54.424,113.998c11.464,24.771,5.148,49.844-15.741,65.126
		c-16.477,12.054-34.531,12.709-53.111,5.189c-12.759-5.164-23.012-13.887-32.628-23.455
		C116.049,212.122,114.53,210.355,112.761,208.443z M102.257,197.458c-3.019-4.04-5.907-7.694-8.57-11.506
		c-11.262-16.121-20.771-32.989-22.433-53.177c-1.706-20.719,12.071-39.186,32.221-43.104c21.646-4.208,41.906,7.115,48.009,26.956
		c3.301,10.732,2.191,21.392-1.03,31.945c-5.19,17.012-14.73,31.603-25.5,45.478c-1.587,2.043-2.911,3.726-0.354,5.831
		c8.959,7.374,17.199,15.952,27.042,21.854c19.371,11.615,41.548,6.565,52.5-10.625c8.252-12.954,7.095-26.317,0.797-39.553
		c-17.309-36.372-34.66-72.726-52.217-108.979c-5.51-11.378-11.424-22.587-17.705-33.557c-5.817-10.162-14.833-15.125-26.769-13.426
		c-9.412,1.339-15.482,7.456-19.788,15.331C82.553,41.73,76.788,52.628,71.43,63.712c-17.31,35.812-34.42,71.72-51.573,107.607
		c-3.802,7.954-5.859,16.275-4.716,25.176c3.057,23.806,27.892,37.576,51.468,28.445C81.007,219.364,91.812,209.054,102.257,197.458
		z M112.236,185.542c8.955-11.339,16.737-22.549,21.422-35.44c2.347-6.459,3.958-13.499,4.221-20.341
		c0.603-15.615-10.896-26.257-26.592-25.685c-15.2,0.555-26.057,12.09-24.819,27.285C88.179,152.391,99.918,168.773,112.236,185.542
		z"/>
	<path fill-rule="evenodd" clip-rule="evenodd" fill="#FFFFFF" d="M672.245,46.867c7.466,0,14.399,0,21.74,0
		c0,16.511,0,32.771,0,49.429c1.056-0.23,1.745-0.195,2.195-0.506c21.976-15.21,52.7-6.178,63.344,18.644
		c8.06,18.797,4.323,40.815-9.282,54.684c-13.313,13.572-34.885,17.228-49.818,8.387c-1.841-1.09-3.502-2.486-5.25-3.738
		c-1.068,1.965-1.673,4.732-3.322,5.674c-1.779,1.016-4.534,0.366-6.864,0.369c-3.829,0.005-7.657-0.041-11.486-0.092
		c-0.305-0.004-0.607-0.208-1.256-0.448C672.245,135.35,672.245,91.312,672.245,46.867z M713.816,161.39
		c15.181,0.295,23.937-9.792,26.107-17.57c3.679-13.184-0.313-24.742-10.574-31.015c-10.309-6.302-24.042-5.203-32.318,2.943
		c-1.558,1.534-2.681,4.195-2.785,6.393c-0.345,7.311,0.419,14.703-0.287,21.962c-0.757,7.779,3.25,11.792,9.45,14.425
		C706.692,159.922,710.336,160.463,713.816,161.39z"/>
	<path fill-rule="evenodd" clip-rule="evenodd" fill="#FFFFFF" d="M498.252,173.082c0.682,6.291-2.515,7.045-6.943,6.805
		c-4.939-0.268-9.905-0.062-15.147-0.062c0-44.547,0-88.578,0-132.886c7.306,0,14.359,0,22.034,0c0,16.641,0,32.989,0,50.422
		c11.902-10.628,24.835-11.378,38.089-7.106c16.12,5.197,26.46,16.595,29.957,33.115c4.125,19.486-0.338,36.736-16.571,49.568
		C536.542,183.317,515.039,187.454,498.252,173.082z M498.097,134.81c0,2.999,0.283,6.029-0.052,8.99
		c-1.053,9.308,2.526,12.569,11.86,15.565c5.239,1.681,11.652,1.488,17.124,0.278c10.463-2.314,16.456-9.846,17.851-20.354
		c1.406-10.594-1.251-20.187-10.886-26.077c-9.629-5.886-19.742-6.273-29.713-0.194c-4.284,2.612-7.062,5.752-6.273,11.31
		C498.494,127.757,498.098,131.312,498.097,134.81z"/>
	<path fill-rule="evenodd" clip-rule="evenodd" fill="#FFFFFF" d="M337.937,96.806c-0.801-6.269,2.639-6.775,7.005-6.577
		c4.938,0.224,9.894,0.051,15.073,0.051c0,29.994,0,59.38,0,89.447c-6.496,0-12.938,0.315-19.304-0.247
		c-1.387-0.122-2.497-3.381-3.407-4.716c-5.235,2.183-10.716,5.468-16.631,6.753c-20.563,4.466-43.404-9.608-49.941-30.817
		c-7.125-23.111,2.025-46.898,22.836-57.91C307.63,85.35,321.313,86.441,337.937,96.806z M338.063,135.026
		c0-3.997-0.187-8.005,0.056-11.986c0.212-3.488-1.031-5.909-3.676-8.163c-10.965-9.347-29.786-7.543-38.404,3.842
		c-8.984,11.869-5.906,30.412,6.444,38.293c6.717,4.286,14.278,4.538,21.724,3.243c9.414-1.636,13.849-7.448,13.843-16.737
		C338.048,140.688,338.05,137.857,338.063,135.026z"/>
	<path fill-rule="evenodd" clip-rule="evenodd" fill="#FFFFFF" d="M600.437,96.113c9.644-8.719,21.807-9.782,34.696-6.572
		c12.758,3.177,22.978,13.524,23.535,26.583c0.893,20.911,0.239,41.888,0.239,63.272c-6.78,0-13.981,0-21.835,0
		c0-2.791,0-5.562,0-8.333c-0.002-13.66,0.029-27.32-0.036-40.98c-0.013-2.646-0.212-5.323-0.655-7.929
		c-1.773-10.421-7.475-15.131-18.133-13.788c-4.751,0.599-9.346,3.024-13.82,5.045c-3.302,1.491-4.428,4.395-4.391,8.189
		c0.171,17.823,0.069,35.648,0.065,53.474c0,1.311,0,2.623,0,4.342c-7.374,0-14.431,0-21.914,0c0-29.464,0-58.98,0-89.083
		c5.734,0,11.386-0.449,16.891,0.25C596.947,90.819,598.447,93.954,600.437,96.113z"/>
	<path fill-rule="evenodd" clip-rule="evenodd" fill="#FFFFFF" d="M434.48,179.618c-7.561,0-14.669,0-22.086,0
		c0-29.732,0-59.26,0-89.372c6.314,0,12.459-0.367,18.509,0.23c1.756,0.174,3.239,3.112,5.334,5.29
		c0.249-0.173,1.539-1.015,2.773-1.932c7.248-5.387,15.38-6.859,24.101-5.21c1.066,0.202,2.644,1.705,2.684,2.66
		c0.248,5.94,0.125,11.896,0.125,17.272c-5.109,0-9.898-0.781-14.29,0.206c-5.027,1.128-10.053,3.288-14.36,6.101
		c-1.803,1.178-2.417,5.183-2.443,7.912c-0.171,18.143-0.034,36.289-0.014,54.433C434.813,177.845,434.642,178.482,434.48,179.618z"
		/>
	<path fill-rule="evenodd" clip-rule="evenodd" fill="#FFFFFF" d="M375.395,90.333c6.66,0,13.127-0.15,19.571,0.179
		c0.862,0.044,2.264,2.499,2.29,3.858c0.182,9.486,0.045,18.979,0.053,28.468c0.014,17.148,0.059,34.296,0.089,51.445
		c0.003,1.623,0,3.247,0,5.227c-7.551,0-14.614,0-22.004,0C375.395,149.971,375.395,120.574,375.395,90.333z"/>
	<path fill-rule="evenodd" clip-rule="evenodd" fill="#FFFFFF" d="M401.556,62.303c-0.102,8.269-7.055,14.948-15.513,14.901
		c-8.152-0.045-15.188-7.38-14.898-15.531c0.296-8.297,7.466-15.186,15.561-14.951C395.106,46.967,401.66,53.843,401.556,62.303z"/>
</g>
</svg>
